# xmcd
#
# Track frame offsets:
#	150
#	14225
#	25222
#	44282
#	58907
#	65492
#	80777
#	92070
#	110600
#	121200
#	139517
#	156885
#	169177
#
# Disc length: 2551 seconds
#
# Revision: 1
# Processed by: cddbd v1.5.1PL0 Copyright (c) Steve Scherf et al.
# Submitted via: CDex 1.50Beta5
#
DISCID=b609f50d
DTITLE=チューリップ - WELCOME TO MY HOUSE
DYEAR=2001
DGENRE=
TTITLE0=WELCOME TO MY HOUSE
TTITLE1=僕はライオン
TTITLE2=博多っ子純情
TTITLE3=セクシー・ペティキュア
TTITLE4=二人の道
TTITLE5=置いてきた日々
TTITLE6=遠い灯
TTITLE7=たしかな愛
TTITLE8=夏に別れを
TTITLE9=新しい夜だから
TTITLE10=たった一度のドライバー
TTITLE11=ぼくが愛した犬・どんパ
TTITLE12=人生の始まり
EXTD=
EXTT0=
EXTT1=
EXTT2=
EXTT3=
EXTT4=
EXTT5=
EXTT6=
EXTT7=
EXTT8=
EXTT9=
EXTT10=
EXTT11=
EXTT12=
PLAYORDER=
